# xmcd
#
# Track frame offsets: 
#        183
#        9185
#        26483
#        33313
#        50065
#        64450
#        74405
#        113565
#        138905
#        147015
#        151948
#        155888
#        160928
#        172090
#        187470
#        199768
#        222143
#
# Disc length: 3217 seconds
#
# Revision: 3
# Processed by: cddbd v1.5.2PL0 Copyright (c) Steve Scherf et al.
# Submitted via: ExactAudioCopy v0.95b4
#
DISCID=f80c8f11
DTITLE=Hank Williams Jr. - Hank Live
DYEAR=1900
DGENRE=Country
TTITLE0=Intro
TTITLE1=My Name Is Bocephus
TTITLE2=Workin' For MCA
TTITLE3=I Really Like Girls
TTITLE4=If You Don't Like Hank Williams
TTITLE5=Sweet Home Alabama
TTITLE6=La Grange
TTITLE7=Medley: Trouble In Mind/Short Haired Woman
TTITLE8=The Conversation
TTITLE9=Man Of Steel
TTITLE10=I'm For Love
TTITLE11=If Heaven Ain't A Lot Like Dixie
TTITLE12=All My Rowdy Friends (Have Settled Down)
TTITLE13=House Of The Rising Sun
TTITLE14=The Ride
TTITLE15=A Country Boy Can Survive
TTITLE16=Medley: Family Tradition/Hey, Good Lookin'
EXTD=
EXTT0=
EXTT1=
EXTT2=
EXTT3=
EXTT4=
EXTT5=
EXTT6=
EXTT7=
EXTT8=
EXTT9=
EXTT10=
EXTT11=
EXTT12=
EXTT13=
EXTT14=
EXTT15=
EXTT16=
PLAYORDER=
